<svg width="24" height="24" viewBox="0 0 24 24" fill="none" xmlns="http://www.w3.org/2000/svg">
<path d="M7.6813 11.0617C7.09019 10.8915 6.49908 10.8052 5.92409 10.8052C5.03617 10.8052 4.29527 11.0081 3.72078 11.2566C4.27463 9.22898 5.60512 5.73038 8.25554 5.33639C8.50099 5.29988 8.70214 5.1224 8.76911 4.88349L9.34838 2.81157C9.39722 2.63635 9.36827 2.4488 9.26832 2.29674C9.16838 2.14468 9.00776 2.04322 8.82776 2.01855C8.63216 1.99187 8.43277 1.97827 8.23515 1.97827C5.05379 1.97827 1.90315 5.29888 0.573665 10.0535C-0.206757 12.8429 -0.435597 17.0366 1.48676 19.6762C2.56248 21.1532 4.13189 21.9419 6.15142 22.0207C6.15973 22.021 6.16778 22.0212 6.17609 22.0212C8.6679 22.0212 10.8775 20.3431 11.5497 17.9406C11.9512 16.5043 11.7697 14.9981 11.0381 13.6983C10.3143 12.4131 9.12231 11.4764 7.6813 11.0617Z" fill="#FFAC31"/>
<path d="M23.2791 13.6986C22.5553 12.4131 21.3633 11.4764 19.9223 11.0617C19.3312 10.8915 18.7401 10.8052 18.1653 10.8052C17.2774 10.8052 16.5363 11.0081 15.9618 11.2566C16.5156 9.22898 17.8461 5.73038 20.4968 5.33639C20.7422 5.29988 20.9431 5.1224 21.0103 4.88349L21.5896 2.81157C21.6385 2.63635 21.6095 2.4488 21.5096 2.29674C21.4099 2.14468 21.2493 2.04322 21.069 2.01855C20.8736 1.99187 20.6743 1.97827 20.4764 1.97827C17.295 1.97827 14.1444 5.29888 12.8146 10.0535C12.0345 12.8429 11.8056 17.0366 13.7282 19.6767C14.8037 21.1534 16.3734 21.9424 18.3927 22.021C18.401 22.0212 18.409 22.0215 18.4176 22.0215C20.9091 22.0215 23.119 20.3433 23.7912 17.9408C24.1922 16.5046 24.0104 14.9981 23.2791 13.6986Z" fill="#FFAC31"/>
</svg>
