<svg width="144" height="24" viewBox="0 0 144 24" fill="none" xmlns="http://www.w3.org/2000/svg">
<g clip-path="url(#clip0_512_6125)">
<path d="M113.937 9.2064C113.78 8.72043 113.349 8.37526 112.839 8.3293L105.912 7.70032L103.173 1.28908C102.971 0.819222 102.511 0.515076 102 0.515076C101.489 0.515076 101.029 0.819222 100.827 1.29018L98.088 7.70032L91.1598 8.3293C90.6508 8.37636 90.2208 8.72043 90.0628 9.2064C89.9048 9.69237 90.0507 10.2254 90.4358 10.5614L95.6718 15.1535L94.1278 21.9547C94.0149 22.4548 94.209 22.9717 94.6239 23.2716C94.8469 23.4328 95.1079 23.5148 95.371 23.5148C95.5979 23.5148 95.8229 23.4537 96.0249 23.3328L102 19.7616L107.973 23.3328C108.41 23.5957 108.961 23.5718 109.375 23.2716C109.79 22.9708 109.984 22.4537 109.871 21.9547L108.327 15.1535L113.563 10.5623C113.948 10.2254 114.095 9.69329 113.937 9.2064Z" fill="#FFAC31"/>
</g>
<g clip-path="url(#clip1_512_6125)">
<path d="M83.9374 9.2064C83.7803 8.72043 83.3493 8.37526 82.8393 8.3293L75.9123 7.70032L73.1731 1.28908C72.9712 0.819222 72.5112 0.515076 72.0001 0.515076C71.4891 0.515076 71.0291 0.819222 70.8271 1.29018L68.088 7.70032L61.1598 8.3293C60.6508 8.37636 60.2208 8.72043 60.0628 9.2064C59.9048 9.69237 60.0507 10.2254 60.4358 10.5614L65.6718 15.1535L64.1278 21.9547C64.0149 22.4548 64.209 22.9717 64.6239 23.2716C64.8469 23.4328 65.1079 23.5148 65.371 23.5148C65.5979 23.5148 65.8229 23.4537 66.0249 23.3328L72.0001 19.7616L77.9732 23.3328C78.4103 23.5957 78.9612 23.5718 79.3752 23.2716C79.7904 22.9708 79.9843 22.4537 79.8713 21.9547L78.3273 15.1535L83.5633 10.5623C83.9484 10.2254 84.0955 9.69329 83.9374 9.2064Z" fill="#FFAC31"/>
</g>
<g clip-path="url(#clip2_512_6125)">
<path d="M53.9374 9.2064C53.7803 8.72043 53.3493 8.37526 52.8393 8.3293L45.9123 7.70032L43.1731 1.28908C42.9712 0.819222 42.5112 0.515076 42.0001 0.515076C41.4891 0.515076 41.0291 0.819222 40.8271 1.29018L38.088 7.70032L31.1598 8.3293C30.6508 8.37636 30.2208 8.72043 30.0628 9.2064C29.9048 9.69237 30.0507 10.2254 30.4358 10.5614L35.6718 15.1535L34.1278 21.9547C34.0149 22.4548 34.209 22.9717 34.6239 23.2716C34.8469 23.4328 35.1079 23.5148 35.371 23.5148C35.5979 23.5148 35.8229 23.4537 36.0249 23.3328L42.0001 19.7616L47.9732 23.3328C48.4103 23.5957 48.9612 23.5718 49.3752 23.2716C49.7904 22.9708 49.9843 22.4537 49.8713 21.9547L48.3273 15.1535L53.5633 10.5623C53.9484 10.2254 54.0955 9.69329 53.9374 9.2064Z" fill="#FFAC31"/>
</g>
<g clip-path="url(#clip3_512_6125)">
<path d="M23.9374 9.2064C23.7803 8.72043 23.3493 8.37526 22.8393 8.3293L15.9123 7.70032L13.1731 1.28908C12.9712 0.819222 12.5112 0.515076 12.0001 0.515076C11.4891 0.515076 11.0291 0.819222 10.8271 1.29018L8.08797 7.70032L1.15982 8.3293C0.65077 8.37636 0.220828 8.72043 0.0628038 9.2064C-0.0952203 9.69237 0.0507185 10.2254 0.435799 10.5614L5.67183 15.1535L4.12785 21.9547C4.01487 22.4548 4.20897 22.9717 4.62389 23.2716C4.84692 23.4328 5.10785 23.5148 5.37098 23.5148C5.59786 23.5148 5.8229 23.4537 6.02487 23.3328L12.0001 19.7616L17.9732 23.3328C18.4103 23.5957 18.9612 23.5718 19.3752 23.2716C19.7904 22.9708 19.9843 22.4537 19.8713 21.9547L18.3273 15.1535L23.5633 10.5623C23.9484 10.2254 24.0955 9.69329 23.9374 9.2064Z" fill="#FFAC31"/>
</g>
<g clip-path="url(#clip4_512_6125)">
<path d="M125.372 23.5147C125.109 23.5147 124.848 23.4327 124.625 23.2715C124.21 22.9707 124.016 22.4536 124.129 21.9546L125.673 15.1533L120.437 10.5613C120.052 10.2253 119.905 9.69317 120.063 9.20628C120.221 8.7203 120.651 8.37624 121.16 8.32918L128.088 7.7002L130.827 1.29006C131.029 0.8191 131.489 0.514954 132 0.514954C132.511 0.514954 132.971 0.8191 133.173 1.28896L135.912 7.7002L142.839 8.32918C143.349 8.37514 143.779 8.7203 143.937 9.20628C144.095 9.69225 143.949 10.2253 143.564 10.5613L138.328 15.1524L139.872 21.9535C139.985 22.4536 139.791 22.9707 139.376 23.2706C138.962 23.5705 138.41 23.5936 137.974 23.3316L132 19.7615L126.026 23.3336C125.824 23.4535 125.599 23.5147 125.372 23.5147ZM132 18.2235C132.227 18.2235 132.452 18.2845 132.654 18.4045L138.292 21.7766L136.835 15.3573C136.731 14.9005 136.886 14.4235 137.239 14.1144L142.183 9.77831L135.642 9.1843C135.171 9.14127 134.766 8.84518 134.582 8.41121L132 2.36199L129.415 8.41213C129.233 8.84317 128.828 9.13926 128.358 9.18229L121.816 9.7763L126.76 14.1123C127.114 14.4224 127.269 14.8984 127.164 15.3564L125.708 21.7755L131.346 18.4045C131.548 18.2845 131.773 18.2235 132 18.2235ZM128.035 7.82416C128.035 7.82416 128.035 7.82526 128.034 7.82618L128.035 7.82416ZM135.963 7.82123L135.964 7.82325C135.964 7.82215 135.964 7.82215 135.963 7.82123Z" fill="#4D4D4D"/>
<g clip-path="url(#clip5_512_6125)">
<path d="M143.937 9.2064C143.78 8.72043 143.349 8.37526 142.839 8.3293L135.912 7.70032L133.173 1.28908C132.971 0.819222 132.511 0.515076 132 0.515076C131.489 0.515076 131.029 0.819222 130.827 1.29018L128.088 7.70032L121.16 8.3293C120.651 8.37636 120.221 8.72043 120.063 9.2064C119.905 9.69237 120.051 10.2254 120.436 10.5614L125.672 15.1535L124.128 21.9547C124.015 22.4548 124.209 22.9717 124.624 23.2716C124.847 23.4328 125.108 23.5148 125.371 23.5148C125.598 23.5148 125.823 23.4537 126.025 23.3328L132 19.7616L137.973 23.3328C138.41 23.5957 138.961 23.5718 139.375 23.2716C139.79 22.9708 139.984 22.4537 139.871 21.9547L138.327 15.1535L143.563 10.5623C143.948 10.2254 144.095 9.69329 143.937 9.2064Z" fill="#FFAC31"/>
</g>
</g>
<defs>
<clipPath id="clip0_512_6125">
<rect width="24" height="24" fill="white" transform="translate(90)"/>
</clipPath>
<clipPath id="clip1_512_6125">
<rect width="24" height="24" fill="white" transform="translate(60)"/>
</clipPath>
<clipPath id="clip2_512_6125">
<rect width="24" height="24" fill="white" transform="translate(30)"/>
</clipPath>
<clipPath id="clip3_512_6125">
<rect width="24" height="24" fill="white"/>
</clipPath>
<clipPath id="clip4_512_6125">
<rect width="24" height="24" fill="white" transform="translate(120)"/>
</clipPath>
<clipPath id="clip5_512_6125">
<rect width="15" height="24" fill="white" transform="translate(120)"/>
</clipPath>
</defs>
</svg>
